<svg id="Capa_1" data-name="Capa 1" xmlns="http://www.w3.org/2000/svg" viewBox="0 0 150 150"><defs><style>.cls-1{fill:#ffe6e1;}.cls-2{fill:#ffb647;}.cls-3{fill:#ee938b;}.cls-4{fill:#fff;}.cls-5{fill:#8fa5e8;}.cls-6{fill:#d16363;}</style></defs><ellipse class="cls-1" cx="75" cy="76.18" rx="75" ry="73.64"/><path class="cls-2" d="M89.1,98.12c5.11-.2,10.18-.62,15.16-1.31,9.33-1.3,17.67-3.59,22-12.51,4.45-9.6-.64-24-5.64-32.95-3.11-5.57-6.24-11.06-8.43-17.05-3-8.31-5.31-17.25-11.75-23.8-.25-.26-.5-.5-.76-.75A36.33,36.33,0,0,0,75,0C61.63,0,48.75,7.68,43,19.53c-4,8.11-5.31,17.16-9.11,25.35-4,8.59-8.72,16.94-10.35,26.35a19,19,0,0,0,5,16.68c5.23,5.44,12.19,7.71,19.42,8.7A238.31,238.31,0,0,0,89.1,98.12Z"/><rect class="cls-3" x="57.48" y="66.67" width="35.13" height="44"/><path class="cls-4" d="M139.53,114c-16.53-6.82-46.71-12-46.71-12-11.58,9.57-26.23,9.51-35.34,0,0,0-30.55,4.44-47.79,10.37a75.14,75.14,0,0,0,61.91,37.5c1.19,0,2.38.08,3.58.08A75.22,75.22,0,0,0,139.53,114Z"/><path class="cls-5" d="M50.34,103.18c-10.08,1.68-28.61,5.1-40.65,9.24A75,75,0,0,0,63.42,149.1S51.94,128.75,50.34,103.18Z"/><path class="cls-5" d="M99.66,103.18c10.08,1.68,28.61,5.1,40.65,9.24A75,75,0,0,1,86.58,149.1S98.06,128.75,99.66,103.18Z"/><path class="cls-3" d="M75,13.38h0c-22.64,0-27.8,16.68-27.32,33.45,0,12.09-.87,16,.27,19,.64,4.26,9.44,26,27.05,26s25.67-20.58,27.22-26c1.14-3,.11-6.9.11-19C102.8,30.06,97.65,13.41,75,13.38Z"/><path class="cls-6" d="M75,92.31c-6,0-13.06-3.42-17.9-8.71l.75-.66C62.51,88,69.24,91.32,75,91.32S87.73,88,92.23,83l.76.66C88.3,88.82,81.08,92.31,75,92.31Z"/><path class="cls-3" d="M48.18,48.43s-4.64-5.36-9.41-2.22S38.64,67.14,48.18,64,48.18,48.43,48.18,48.43Z"/><path class="cls-3" d="M101.91,48.43s4.64-5.36,9.41-2.22.13,20.93-9.41,17.79S101.91,48.43,101.91,48.43Z"/><polygon class="cls-6" points="47.08 64.44 45.91 56.21 46.91 56.07 48.08 64.3 47.08 64.44"/><polygon class="cls-6" points="103.26 64.42 102.26 64.33 103.04 56.09 104.04 56.19 103.26 64.42"/><path class="cls-6" d="M41.17,55.47c-1-2.67-1.11-4.62-.25-5.77a2.66,2.66,0,0,1,2.13-1l0,1a1.64,1.64,0,0,0-1.28.62c-.44.6-.73,1.93.39,4.84Z"/><path class="cls-6" d="M109.31,55.47l-.94-.34c1.11-2.91.82-4.24.38-4.84a1.61,1.61,0,0,0-1.27-.62l0-1a2.68,2.68,0,0,1,2.13,1C110.42,50.85,110.34,52.8,109.31,55.47Z"/><path class="cls-2" d="M44.65,45.8c4.21-7.4,24.23-6.42,30.4-23.32,6,19.29,23.61,13.64,31.4,24,0,0-3.72-38.87-31.4-38.87S44.65,45.8,44.65,45.8Z"/></svg>