<svg id="Capa_1" data-name="Capa 1" xmlns="http://www.w3.org/2000/svg" viewBox="0 0 150 150"><defs><style>.cls-1{fill:#ffe6e1;}.cls-2{fill:#ee938b;}.cls-3{fill:#fff;}.cls-4{fill:#ffb647;}.cls-5{fill:#f1bcb6;}.cls-6{fill:#d16363;}.cls-7{fill:#521f4d;}</style></defs><ellipse class="cls-1" cx="75" cy="75.46" rx="75" ry="74.54"/><rect class="cls-2" x="55.34" y="65.64" width="39.68" height="44.55"/><path class="cls-3" d="M139.28,114.18C118.11,104.79,95,101.46,95,101.46c-10.6,11-30.32,11.13-39.69,0,0,0-23.08,3.33-44.25,12.72a75.25,75.25,0,0,0,128.19,0Z"/><path class="cls-4" d="M99.34,102.19v43.86a75.14,75.14,0,0,0,39.94-31.87C123.65,107.24,107,103.62,99.34,102.19Z"/><path class="cls-4" d="M51,102.21c-7.69,1.43-24.29,5.06-39.86,12A75.12,75.12,0,0,0,51,146Z"/><path class="cls-5" d="M74.62,114.79h-.37c-10.25-.1-18.9-4.6-23.73-12.32l.86-.53c4.64,7.43,13,11.75,22.88,11.85,10.31.09,19.8-4.43,24.66-11.86l.84.55C94.77,110.1,85.17,114.79,74.62,114.79Z"/><path class="cls-2" d="M114.05,41.91c-2.19-5.21-6.66-2.65-6.66-2.65C110,15.61,97.87,0,75.19,0S40.4,15.61,43,39.26c0,0-4.47-2.56-6.66,2.65s1.81,17.4,4.29,21.28a5,5,0,0,0,6.22,2.24s.91,8.92,2.05,11.94S63,94.32,66.77,96.45c5,2.91,12.35,2.91,16.83,0,3.8-2.13,16.74-16,17.89-19.08s2-12.1,2-12.1a4.88,4.88,0,0,0,6.24-2.08C112.24,59.31,116.24,47.11,114.05,41.91Z"/><path class="cls-6" d="M75.38,99.12a17.81,17.81,0,0,1-8.86-2.24C64.21,95.59,58.91,90.32,55,86l.75-.67c4,4.42,9.18,9.52,11.3,10.71,4.83,2.82,12,2.83,16.3,0,2.14-1.2,7.31-6.3,11.33-10.73l.75.67c-4,4.35-9.25,9.62-11.56,10.91A15.74,15.74,0,0,1,75.38,99.12Z"/><rect class="cls-6" x="46.01" y="59.84" width="1.01" height="5.61" transform="translate(-6.73 5.61) rotate(-6.44)"/><rect class="cls-6" x="101.09" y="62.06" width="5.44" height="1.01" transform="translate(30.83 159.33) rotate(-84.05)"/><path class="cls-6" d="M39.25,53.6c-.21-.77-2-7.54.46-9.4a2.17,2.17,0,0,1,1.9-.33,3.78,3.78,0,0,1,2,2.11l-.94.36C42.48,46,42,45,41.3,44.82a1.15,1.15,0,0,0-1,.2c-1.41,1.07-.8,5.67-.07,8.32Z"/><path class="cls-6" d="M111.12,53.6l-1-.26c.73-2.65,1.34-7.25-.1-8.34a1.16,1.16,0,0,0-1-.18c-.81.26-1.31,1.51-1.31,1.52l-1-.36a3.78,3.78,0,0,1,2-2.11,2.14,2.14,0,0,1,1.87.31C113.12,46.06,111.33,52.83,111.12,53.6Z"/><path class="cls-7" d="M46.2,51.7c6.73,0,1.64-21.56,6.92-26.79,2.69-2.65,41.55-2.55,44.13,0,5.28,5.23.19,26.82,6.92,26.79-.47-5-.48-10.47,3.21-12.44h0C110,15.61,97.87,0,75.19,0S40.4,15.61,43,39.26h0C46,41.2,46.67,46.47,46.2,51.7Z"/><path class="cls-7" d="M75.19,58.86S59.24,58.51,58.58,69.1H91.79C91.13,58.51,75.19,58.86,75.19,58.86Z"/></svg>