<svg id="Capa_1" data-name="Capa 1" xmlns="http://www.w3.org/2000/svg" viewBox="0 0 150 150"><defs><style>.cls-1{fill:#ffe6e1;}.cls-2{fill:#521f4d;}.cls-3{fill:#ee938b;}.cls-4{fill:#e8525f;}.cls-5{fill:#fff;}.cls-6{fill:#d16363;}</style></defs><ellipse class="cls-1" cx="75" cy="76.69" rx="75" ry="73.31"/><path class="cls-2" d="M118.67,70.82C124,40.64,111.26,2.27,76.3.08c-11.16-.7-22.06,3.31-27.69,11-19.29,7.43-20.91,40.55-18.76,52C35.76,94.32,7.26,88.94,14.5,118.28l59.57-3.21h2.28l58.51.74C139.79,93.67,116.27,95.17,118.67,70.82Z"/><rect class="cls-3" x="57.4" y="67.04" width="35.13" height="43.81"/><path class="cls-4" d="M139.46,114.17c-16.54-6.79-46.71-11.91-46.71-11.91-11.59,9.53-26.23,9.47-35.35,0,0,0-30.54,4.42-47.79,10.33a75.16,75.16,0,0,0,61.92,37.32c1.19,0,2.38.09,3.58.09A75.33,75.33,0,0,0,139.46,114.17Z"/><path class="cls-5" d="M106.07,61.75c-1.31,0-2.37,1.84-2.37,4.12S104.76,70,106.07,70s2.37-1.85,2.37-4.13S107.38,61.75,106.07,61.75Zm0,6.44c-.9,0-1.63-1.27-1.63-2.84s.73-2.84,1.63-2.84,1.63,1.27,1.63,2.84S107,68.19,106.07,68.19Z"/><path class="cls-5" d="M41.39,65.87c0,2.28,1.06,4.13,2.37,4.13s2.37-1.85,2.37-4.13-1.06-4.12-2.37-4.12S41.39,63.59,41.39,65.87Zm.74-.52c0-1.57.73-2.84,1.63-2.84s1.63,1.27,1.63,2.84-.73,2.84-1.63,2.84S42.13,66.92,42.13,65.35Z"/><path class="cls-3" d="M74.93,14h0c-22.65,0-27.8,16.6-27.33,33.3,0,12-.07,20.9,1.07,23.87S57.75,92,74.93,92.07h0c17.18,0,25.12-17.93,26.26-20.91s1.06-11.84,1.06-23.87C102.73,30.59,97.58,14,74.93,14Z"/><path class="cls-6" d="M74.93,92.56c-6.73,0-12.81-2.68-18.05-8l.72-.68c5,5.06,10.88,7.64,17.33,7.65S87,89.07,92,84.17l.71.69C87.54,90,81.55,92.55,74.93,92.56Z"/><path class="cls-3" d="M48.6,46.71S44.05,40.16,39.37,44s-.13,25.59,9.23,21.76S48.6,46.71,48.6,46.71Z"/><path class="cls-3" d="M101.34,46.71s4.56-6.55,9.24-2.72.12,25.59-9.24,21.76S101.34,46.71,101.34,46.71Z"/><polygon class="cls-6" points="47.37 66.04 46.84 59.01 47.84 58.93 48.38 65.97 47.37 66.04"/><polygon class="cls-6" points="102.52 66.02 101.52 65.95 102.11 58.17 103.11 58.24 102.52 66.02"/><path class="cls-6" d="M41.69,55.25c-1.07-3.49-1.08-5.92,0-7.21a2.4,2.4,0,0,1,1.9-.91l-.07,1,0-.5,0,.5a1.37,1.37,0,0,0-1.07.55c-.46.58-1,2.18.22,6.3Z"/><path class="cls-6" d="M108.63,55.25l-1-.28c1.27-4.12.68-5.72.22-6.3a1.38,1.38,0,0,0-1.07-.55l-.06-1a2.4,2.4,0,0,1,1.9.91C109.71,49.33,109.7,51.76,108.63,55.25Z"/><path class="cls-5" d="M45.75,67a2.63,2.63,0,0,1-.49-.06.39.39,0,0,1-.11-.06c-.29.81-.8,1.36-1.39,1.36-.9,0-1.63-1.27-1.63-2.84s.72-2.82,1.61-2.83a.39.39,0,0,0,0-.77c-1.3,0-2.35,1.85-2.35,4.12S42.45,70,43.76,70c1.09,0,2-1.3,2.28-3Z"/><path class="cls-5" d="M106.08,61.75a.39.39,0,0,0,0,.77c.9,0,1.62,1.27,1.62,2.83s-.73,2.84-1.63,2.84c-.5,0-.94-.41-1.24-1l-.26.19-.61.35c.38,1.35,1.18,2.3,2.11,2.3,1.31,0,2.37-1.85,2.37-4.13S107.39,61.76,106.08,61.75Z"/><path class="cls-2" d="M47.46,45.37A22.06,22.06,0,0,1,56.2,27.56c8.06,13.81,30.29,18.5,50.58,11.64,0,0-2-33.18-33.68-31.24S47.46,45.37,47.46,45.37Z"/></svg>