<svg id="Capa_1" data-name="Capa 1" xmlns="http://www.w3.org/2000/svg" xmlns:xlink="http://www.w3.org/1999/xlink" viewBox="0 0 136 24"><defs><style>.cls-1{fill:none;}.cls-2{fill:#fff;}.cls-3{clip-path:url(#clip-path);}</style><clipPath id="clip-path"><polygon class="cls-1" points="0.55 22.09 135.45 22.09 135.45 1.45 0.55 1.45 0.55 22.09 0.55 22.09"/></clipPath></defs><path class="cls-2" d="M112.78,2.13,113,17.26h-.1L108.5,2.13h-7.15V21.21h4.74l-.27-15.66h.11l4.76,15.66h6.86V2.13ZM22,2.13,18.45,21.41h5.21L26.3,3.91h.1L29,21.41h5.18L30.6,2.13Zm29.13,0L48.78,16.87h-.11L46.29,2.13H38.43L38,21.41h4.83L43,4.08h.1l3.22,17.33h4.9L54.39,4.08h.11l.12,17.33h4.82L59,2.13Z"/><g class="cls-3"><path class="cls-2" d="M9.5,15.9a2.51,2.51,0,0,1,0,1.43,1.66,1.66,0,0,1-1.88,1.3,1.72,1.72,0,0,1-1.93-1.75V15H.55v1.48c0,4.31,3.38,5.61,7,5.61s6.35-1.19,6.81-4.41a9.3,9.3,0,0,0,0-3.16c-.81-4-8.13-5.25-8.67-7.5a2.52,2.52,0,0,1,0-1A1.58,1.58,0,0,1,7.42,4.72,1.64,1.64,0,0,1,9.21,6.47V7.66H14V6.3c0-4.2-3.77-4.85-6.5-4.85C4.09,1.45,1.29,2.58.78,5.73a6.72,6.72,0,0,0,0,2.6c.84,3.94,7.69,5.08,8.68,7.57m62.69,0a2.55,2.55,0,0,1,0,1.42,1.64,1.64,0,0,1-1.86,1.28,1.71,1.71,0,0,1-1.92-1.73V15H63.32v1.47c0,4.26,3.35,5.54,6.94,5.54s6.29-1.17,6.75-4.36a9.05,9.05,0,0,0,0-3.13c-.8-4-8-5.19-8.58-7.42a2.46,2.46,0,0,1,0-1,1.59,1.59,0,0,1,1.75-1.29,1.62,1.62,0,0,1,1.77,1.73V7.7h4.77V6.36c0-4.16-3.74-4.81-6.44-4.81-3.39,0-6.17,1.12-6.67,4.24a6.57,6.57,0,0,0,0,2.57c.83,3.91,7.61,5,8.6,7.5m16.18,2.59a1.74,1.74,0,0,0,1.85-1.39,4.31,4.31,0,0,0,0-.74V2.06h4.88V15.88c0,.36,0,1.08-.05,1.27-.34,3.6-3.18,4.76-6.73,4.76S82,20.75,81.64,17.15c0-.19,0-.91,0-1.27V2.06h4.87V16.32a4.31,4.31,0,0,0,0,.74,1.73,1.73,0,0,0,1.85,1.39m40.21-.2a1.79,1.79,0,0,0,2-1.4,4.19,4.19,0,0,0,0-.73v-2.8h-2V10.51h6.83v5.17a11.79,11.79,0,0,1-.07,1.27c-.32,3.51-3.36,4.76-6.78,4.76s-6.46-1.25-6.78-4.76a11.79,11.79,0,0,1-.07-1.27V7.57c0-.34,0-1,.09-1.27.43-3.6,3.34-4.76,6.76-4.76S135,2.68,135.37,6.3c.06.61,0,1.27,0,1.27v.64h-4.87V7.13a3.47,3.47,0,0,0-.06-.73A1.74,1.74,0,0,0,128.57,5a1.79,1.79,0,0,0-1.93,1.4,5.1,5.1,0,0,0-.07.91v8.81a4.23,4.23,0,0,0,0,.73,1.81,1.81,0,0,0,2,1.4"/></g></svg>