<svg id="Capa_1" data-name="Capa 1" xmlns="http://www.w3.org/2000/svg" xmlns:xlink="http://www.w3.org/1999/xlink" viewBox="0 0 181 31"><defs><style>.cls-1{fill:none;}.cls-2{fill:#fff;}.cls-3{clip-path:url(#clip-path);}</style><clipPath id="clip-path"><polygon class="cls-1" points="0.5 29.05 180.5 29.05 180.5 1.5 0.5 1.5 0.5 29.05 0.5 29.05"/></clipPath></defs><path class="cls-2" d="M150.25,2.41l.35,20.2h-.14l-5.92-20.2H135V27.87h6.32L141,7h.14l6.35,20.89h9.16V2.41Zm-121.1,0L24.38,28.14h7L34.85,4.8H35l3.43,23.34h6.91L40.6,2.41ZM68,2.41,64.85,22.09H64.7L61.53,2.41H51l-.57,25.73h6.44L57.07,5h.14l4.3,23.13H68L72.34,5h.14l.16,23.13h6.44L78.51,2.41Z"/><g class="cls-3"><path class="cls-2" d="M12.45,20.79a3.35,3.35,0,0,1,.05,1.9A2.22,2.22,0,0,1,10,24.42a2.3,2.3,0,0,1-2.58-2.33V19.6H.5v2c0,5.74,4.52,7.47,9.35,7.47,4.66,0,8.48-1.58,9.09-5.88a12.46,12.46,0,0,0,0-4.22C17.83,13.57,8.07,12,7.34,9a3.45,3.45,0,0,1,0-1.35A2.13,2.13,0,0,1,9.67,5.87,2.19,2.19,0,0,1,12.05,8.2V9.79h6.43V8c0-5.6-5-6.48-8.68-6.48C5.23,1.5,1.49,3,.81,7.21a8.85,8.85,0,0,0,.06,3.47C2,15.94,11.12,17.46,12.45,20.79m83.64-.05a3.39,3.39,0,0,1,0,1.89,2.19,2.19,0,0,1-2.48,1.7A2.28,2.28,0,0,1,91.09,22V19.56H84.26v2c0,5.69,4.48,7.4,9.26,7.4,4.61,0,8.4-1.57,9-5.82a12.68,12.68,0,0,0,0-4.18C101.41,13.59,91.75,12,91,9a3.35,3.35,0,0,1,0-1.33A2.1,2.1,0,0,1,93.32,6a2.17,2.17,0,0,1,2.37,2.31V9.85h6.36V8.06c0-5.55-5-6.42-8.59-6.42-4.52,0-8.23,1.5-8.9,5.66a8.65,8.65,0,0,0,.06,3.43c1.1,5.21,10.15,6.71,11.47,10m21.59,3.46a2.33,2.33,0,0,0,2.47-1.87,6.07,6.07,0,0,0,.06-1v-19h6.51V20.76c0,.48,0,1.44-.07,1.7-.44,4.8-4.24,6.35-9,6.35s-8.53-1.55-9-6.35c0-.26-.07-1.22,0-1.7V2.32h6.5v19a5.11,5.11,0,0,0,.06,1,2.33,2.33,0,0,0,2.47,1.87m53.66-.27A2.41,2.41,0,0,0,174,22.06a6.09,6.09,0,0,0,.06-1V17.35h-2.64V13.6h9.11v6.89a15.59,15.59,0,0,1-.09,1.7c-.43,4.69-4.49,6.36-9,6.36s-8.62-1.67-9.05-6.36c-.07-.86-.08-1.21-.09-1.7V9.67c0-.46.05-1.26.1-1.69.58-4.81,4.47-6.36,9-6.36s8.56,1.53,9,6.36a13.59,13.59,0,0,1,.06,1.69v.86H174V9.09a7.47,7.47,0,0,0-.08-1,2.7,2.7,0,0,0-5.14,0,5.79,5.79,0,0,0-.1,1.22V21.09a5.11,5.11,0,0,0,.06,1,2.41,2.41,0,0,0,2.63,1.87"/></g></svg>